<?xml version="1.0" standalone="no"?>
<!DOCTYPE svg PUBLIC "-//W3C//DTD SVG 20010904//EN"
 "http://www.w3.org/TR/2001/REC-SVG-20010904/DTD/svg10.dtd">
<svg version="1.0" xmlns="http://www.w3.org/2000/svg"
 width="2000.000000pt" height="1500.000000pt" viewBox="0 0 2000.000000 1500.000000"
 preserveAspectRatio="xMidYMid meet">

<g transform="translate(0.000000,1500.000000) scale(0.100000,-0.100000)"
fill="#000000" stroke="none">
<path d="M15605 9583 c-27 -2 -149 -12 -270 -22 -130 -12 -361 -22 -565 -26
-584 -10 -913 -23 -2095 -85 -412 -21 -853 -44 -980 -51 -170 -8 -572 -9
-1535 -3 -3015 20 -4001 4 -5185 -87 -518 -39 -1117 -103 -1255 -134 -36 -8
-175 -26 -310 -40 -294 -31 -401 -47 -540 -81 -244 -61 -360 -155 -348 -282 8
-78 76 -218 191 -391 132 -199 166 -262 187 -349 18 -71 14 -69 81 -55 20 4
31 -2 53 -31 34 -45 67 -62 156 -81 58 -12 121 -35 138 -50 2 -2 -10 -33 -27
-68 -60 -127 -50 -239 40 -426 27 -57 48 -106 46 -107 -2 -2 -69 -15 -150 -29
-80 -14 -172 -35 -203 -46 -77 -29 -139 -87 -153 -144 -6 -25 -19 -49 -30 -55
-11 -5 -54 -10 -95 -10 -41 0 -86 -5 -99 -11 -21 -10 -23 -16 -20 -57 4 -41
-1 -55 -36 -114 -46 -76 -52 -121 -21 -161 18 -23 19 -27 5 -61 -22 -52 -19
-77 21 -179 22 -56 38 -119 42 -161 6 -64 9 -71 37 -86 42 -23 42 -43 0 -104
-20 -30 -35 -61 -33 -71 6 -32 285 -141 512 -200 394 -103 638 -123 1641 -135
775 -10 858 -14 1166 -66 l156 -26 61 31 c34 17 71 31 82 31 19 0 21 -5 19
-42 l-3 -43 39 2 c28 2 55 -6 101 -32 97 -54 160 -42 166 33 3 36 4 37 48 42
42 5 45 7 45 35 0 22 -5 30 -23 35 -31 7 -30 21 2 45 43 32 72 8 116 -93 39
-93 68 -132 98 -132 18 0 19 3 10 35 -13 40 1 65 37 65 12 0 28 7 35 15 7 9
26 25 41 36 39 27 60 14 98 -62 46 -91 43 -90 102 -60 80 39 189 40 354 5 154
-33 294 -37 364 -10 58 21 138 20 256 -4 122 -25 171 -25 226 0 56 25 80 25
112 0 24 -19 40 -20 319 -20 161 0 482 5 713 11 308 7 505 7 740 -1 247 -9
367 -9 525 0 139 8 845 15 2180 20 1130 5 2061 13 2175 19 660 34 593 28 1355
137 491 70 528 77 564 102 92 63 196 241 240 412 33 130 46 248 46 425 0 213
16 450 45 670 28 209 60 810 59 1115 0 386 -83 698 -230 869 -79 91 -326 230
-524 295 -248 80 -451 107 -810 104 -140 -1 -277 -3 -305 -5z m-9751 -1003
c59 -10 141 -29 181 -41 91 -27 98 -38 79 -134 -18 -92 -51 -330 -59 -427 -7
-76 -8 -78 -34 -78 -14 0 -71 -5 -125 -10 -67 -7 -103 -6 -112 0 -8 7 -13 51
-16 128 -6 170 -38 224 -157 259 -84 25 -240 22 -311 -5 -142 -55 -205 -179
-151 -297 38 -84 118 -141 405 -288 310 -158 381 -203 466 -294 112 -120 154
-252 131 -411 -26 -182 -112 -314 -275 -425 -277 -188 -763 -218 -1149 -71
-102 39 -105 46 -84 208 9 73 22 201 28 286 6 85 12 156 13 156 0 1 63 5 139
9 l137 7 0 -78 c0 -138 36 -259 92 -311 13 -12 46 -32 73 -45 45 -21 65 -23
190 -23 152 0 193 11 273 72 50 38 85 121 80 187 -10 125 -79 183 -413 353
-258 131 -372 203 -460 291 -73 72 -111 139 -130 229 -35 165 1 327 103 463
119 159 351 278 603 310 107 13 356 3 483 -20z m3800 0 c282 -63 496 -240 607
-502 98 -229 121 -556 60 -836 -78 -354 -309 -640 -621 -766 -309 -126 -700
-108 -949 42 -183 111 -316 278 -386 487 -75 225 -85 558 -24 793 117 444 445
742 884 801 104 15 325 5 429 -19z m1050 5 c177 -21 1214 -17 1400 5 l118 14
19 -23 c16 -20 19 -41 19 -150 0 -69 5 -200 10 -291 6 -91 11 -187 13 -215 l2
-50 -133 -9 c-73 -5 -135 -6 -138 -4 -2 3 -11 50 -19 104 -41 276 -70 312
-273 335 -56 7 -105 9 -108 6 -17 -16 -48 -1032 -43 -1352 4 -213 12 -240 79
-280 31 -18 50 -20 157 -18 67 2 124 -1 128 -6 3 -5 -2 -58 -10 -117 -8 -59
-15 -109 -15 -111 0 -1 -156 0 -347 3 -212 4 -432 2 -562 -5 -118 -6 -216 -10
-217 -8 -5 5 17 183 26 203 7 17 20 22 72 27 90 9 167 34 199 66 53 54 53 47
57 854 l3 747 -28 0 c-59 0 -200 -21 -239 -35 -51 -19 -89 -58 -108 -112 -12
-35 -40 -185 -48 -263 -3 -25 -4 -25 -136 -34 -73 -4 -136 -6 -139 -3 -3 4 0
88 6 189 7 101 16 258 20 350 5 111 12 172 21 182 16 20 47 20 214 1z m2832 7
c6 -4 75 -245 153 -537 237 -882 341 -1230 389 -1306 32 -50 113 -99 162 -99
14 0 34 -6 44 -13 16 -12 17 -21 6 -113 l-13 -99 -301 3 c-179 1 -375 -3 -484
-10 -169 -12 -185 -12 -193 3 -9 18 3 188 15 208 4 6 24 11 44 11 61 1 160 25
183 46 19 17 21 27 16 89 -2 39 -22 132 -43 209 l-38 139 -285 -5 c-158 -3
-297 -10 -311 -16 -22 -8 -32 -30 -69 -143 -65 -202 -66 -275 -3 -301 15 -6
79 -13 142 -17 l115 -6 -1 -45 c0 -25 -4 -75 -8 -113 l-8 -67 -96 7 c-53 5
-254 8 -445 8 l-349 0 6 45 c3 25 8 74 12 108 5 46 11 65 23 69 88 27 123 58
170 152 16 31 163 436 326 901 164 465 300 847 301 849 5 6 411 48 474 50 30
0 60 -3 66 -7z m1819 -109 c-4 -60 -9 -110 -12 -113 -2 -2 -31 -10 -65 -17
-118 -24 -137 -51 -149 -210 -26 -362 -50 -1288 -35 -1387 6 -35 16 -58 37
-78 29 -29 30 -30 132 -27 l102 3 3 -34 c1 -19 -4 -71 -10 -115 l-13 -79 -380
-1 c-223 -1 -419 -7 -474 -13 -52 -7 -95 -11 -96 -10 -2 2 2 51 8 111 10 104
11 108 36 113 100 21 162 59 194 117 l22 42 3 705 c2 388 0 729 -3 757 -10 86
-26 97 -140 101 -72 3 -98 8 -102 18 -3 8 0 57 7 109 l13 95 306 1 c168 1 351
5 406 9 55 3 126 7 158 8 l59 2 -7 -107z m-7674 73 c252 -58 403 -185 474
-400 100 -301 -34 -642 -330 -835 -157 -103 -270 -131 -525 -131 l-178 0 -7
-97 c-11 -137 -1 -329 18 -376 23 -54 66 -70 181 -66 50 2 96 1 102 -3 7 -5 6
-40 -5 -115 l-14 -108 -381 -1 c-210 -1 -427 -5 -483 -10 -119 -11 -109 -24
-92 120 l12 94 64 17 c70 19 114 50 141 99 16 28 17 92 17 794 l0 764 -29 25
c-26 22 -36 24 -101 22 -103 -5 -105 -1 -89 113 7 51 13 96 14 100 0 8 601 16
935 12 145 -2 230 -7 276 -18z"/>
<path d="M9210 8279 c-177 -29 -314 -175 -370 -396 -59 -230 -41 -614 40 -836
39 -104 72 -160 139 -231 94 -98 220 -145 359 -133 221 18 368 161 435 424 19
78 22 112 22 308 -1 165 -5 243 -18 311 -61 326 -213 519 -437 554 -74 11 -93
11 -170 -1z"/>
<path d="M13136 7983 c-27 -81 -82 -248 -122 -371 l-72 -223 228 3 c126 2 232
6 236 10 4 4 -36 168 -88 365 -116 439 -110 433 -182 216z"/>
<path d="M7173 8289 c-6 -8 -14 -43 -17 -79 -7 -76 -24 -443 -28 -610 l-3
-115 148 -21 c140 -19 151 -20 197 -4 108 37 181 112 222 230 20 55 23 85 23
200 0 128 -2 138 -29 197 -63 137 -175 196 -396 209 -84 5 -108 4 -117 -7z"/>
</g>
</svg>
